<?xml version="1.0" encoding="UTF-8" standalone="no"?>
<svg
  width="32"
  height="32"
  viewBox="0 0 32 32"
  version="1.1"
  id="svg8"
  inkscape:version="1.3.2 (091e20ef0f, 2023-11-25)"
  sodipodi:docname="marker.svg"
  inkscape:export-filename="marker.png"
  inkscape:export-xdpi="96"
  inkscape:export-ydpi="96"
  xmlns:inkscape="http://www.inkscape.org/namespaces/inkscape"
  xmlns:sodipodi="http://sodipodi.sourceforge.net/DTD/sodipodi-0.dtd"
  xmlns="http://www.w3.org/2000/svg"
  xmlns:svg="http://www.w3.org/2000/svg"
  xmlns:rdf="http://www.w3.org/1999/02/22-rdf-syntax-ns#"
  xmlns:cc="http://creativecommons.org/ns#"
  xmlns:dc="http://purl.org/dc/elements/1.1/">
 <defs
   id="defs2" />
 <sodipodi:namedview
   id="base"
   pagecolor="#ffffff"
   bordercolor="#666666"
   borderopacity="1.0"
   inkscape:pageopacity="0"
   inkscape:pageshadow="2"
   inkscape:zoom="12.652"
   inkscape:cx="39.045"
   inkscape:cy="15.966"
   inkscape:document-units="px"
   inkscape:current-layer="layer2"
   showgrid="true"
   units="px"
   width="800px"
   inkscape:document-rotation="0"
   showguides="true"
   inkscape:guide-bbox="true"
   inkscape:snap-intersection-paths="true"
   inkscape:object-paths="true"
   inkscape:snap-grids="true"
   inkscape:pagecheckerboard="true"
   inkscape:snap-object-midpoints="true"
   inkscape:snap-midpoints="true"
   inkscape:snap-smooth-nodes="true"
   inkscape:showpageshadow="2"
   inkscape:deskcolor="#d1d1d1">
  <inkscape:grid
    type="xygrid"
    id="grid10"
    originx="0"
    originy="0"
    spacingy="1"
    spacingx="1"
    units="px"
    visible="true" />
  <inkscape:page
    x="0"
    y="0"
    width="32"
    height="32"
    id="page4"
    margin="0"
    bleed="0" />
  <inkscape:page
    x="42"
    y="0"
    width="32"
    height="32"
    id="page5"
    margin="0"
    bleed="0" />
 </sodipodi:namedview>
 <metadata
   id="metadata5">
  <rdf:RDF>
   <cc:Work
     rdf:about="">
    <dc:format>image/svg+xml</dc:format>
    <dc:type
      rdf:resource="http://purl.org/dc/dcmitype/StillImage" />
   </cc:Work>
  </rdf:RDF>
 </metadata>
 <g
   inkscape:groupmode="layer"
   id="layer2"
   inkscape:label="marker-shadow">
  <path
    id="path4"
    style="display:inline;opacity:0.2;fill-opacity:1;fill-rule:evenodd;stroke:#000000;stroke-width:2;stroke-linecap:butt;stroke-linejoin:round;stroke-opacity:1"
    d="M 59,4 A 10,10 0 0 0 49,14 10,10 0 0 0 51.475,20.58 L 59,31 66.525,20.58 A 10,10 0 0 0 69,14 10,10 0 0 0 59,4 Z"
    inkscape:label="path4" />
 </g>
 <g
   inkscape:label="marker"
   inkscape:groupmode="layer"
   id="layer1"
   style="display:inline">
  <rect
    style="color:#000000;overflow:visible;opacity:0;stroke:none;stroke-width:2;stroke-linejoin:round;stroke-dasharray:none;paint-order:fill markers stroke"
    id="rect4"
    width="32"
    height="32"
    x="0"
    y="0" />
  <path
    id="path3"
    style="fill:#f44336;fill-opacity:1;fill-rule:evenodd;stroke:#f44336;stroke-width:2;stroke-linecap:butt;stroke-linejoin:round;stroke-opacity:1"
    d="M 16,3 A 10,10 0 0 0 6,13 10,10 0 0 0 8.4746,19.58 L 16,30 23.525,19.58 A 10,10 0 0 0 26,13 10,10 0 0 0 16,3 Z" />
  <circle
    style="color:#000000;overflow:visible;fill:#fafafa;fill-opacity:1;stroke:none;stroke-width:2;stroke-linejoin:round;stroke-opacity:1;paint-order:fill markers stroke"
    id="path6"
    cx="16"
    cy="13"
    r="8" />
  <rect
    style="color:#000000;overflow:visible;fill:#4f4f4f;fill-opacity:1;stroke:none;stroke-width:2;stroke-linejoin:round;stroke-opacity:1;paint-order:fill markers stroke"
    id="rect6"
    width="7"
    height="6"
    x="11"
    y="10"
    rx="0.5"
    ry="0.5" />
  <path
    style="fill:#4f4f4f;fill-opacity:1;fill-rule:evenodd;stroke:none;stroke-width:1px;stroke-linecap:butt;stroke-linejoin:miter;stroke-opacity:1"
    d="M 21,10 18,13 21,16 Z"
    id="path7"
    sodipodi:nodetypes="cccc" />
 </g>
</svg>
