<?xml version="1.0" encoding="UTF-8" standalone="no"?>
<svg
  width="32"
  height="32"
  viewBox="0 0 32 32"
  version="1.1"
  id="svg8"
  inkscape:version="1.4 (e7c3feb100, 2024-10-09)"
  sodipodi:docname="pointer.svg"
  inkscape:export-filename="marker.png"
  inkscape:export-xdpi="96"
  inkscape:export-ydpi="96"
  inkscape:export-batch-path="../assets"
  inkscape:export-batch-name="pointer"
  xmlns:inkscape="http://www.inkscape.org/namespaces/inkscape"
  xmlns:sodipodi="http://sodipodi.sourceforge.net/DTD/sodipodi-0.dtd"
  xmlns="http://www.w3.org/2000/svg"
  xmlns:svg="http://www.w3.org/2000/svg"
  xmlns:rdf="http://www.w3.org/1999/02/22-rdf-syntax-ns#"
  xmlns:cc="http://creativecommons.org/ns#"
  xmlns:dc="http://purl.org/dc/elements/1.1/">
 <defs
   id="defs2" />
 <sodipodi:namedview
   id="base"
   pagecolor="#ffffff"
   bordercolor="#666666"
   borderopacity="1.0"
   inkscape:pageopacity="0"
   inkscape:pageshadow="2"
   inkscape:zoom="13.28"
   inkscape:cx="33.735"
   inkscape:cy="12.274"
   inkscape:document-units="px"
   inkscape:current-layer="layer1"
   showgrid="true"
   units="px"
   width="800px"
   inkscape:document-rotation="0"
   showguides="true"
   inkscape:guide-bbox="true"
   inkscape:snap-intersection-paths="true"
   inkscape:object-paths="true"
   inkscape:snap-grids="true"
   inkscape:pagecheckerboard="true"
   inkscape:snap-object-midpoints="true"
   inkscape:snap-midpoints="true"
   inkscape:snap-smooth-nodes="true"
   inkscape:showpageshadow="2"
   inkscape:deskcolor="#d1d1d1">
  <inkscape:page
    x="0"
    y="0"
    width="32"
    height="32"
    id="page4"
    margin="0"
    bleed="0"
    inkscape:label="pointer" />
  <inkscape:grid
    type="xygrid"
    id="grid10"
    originx="0"
    originy="0"
    spacingy="1"
    spacingx="1"
    units="px"
    visible="true" />
  <inkscape:page
    x="42"
    y="0"
    width="32"
    height="32"
    id="page5"
    margin="0"
    bleed="0"
    inkscape:label="pointer-shadow" />
 </sodipodi:namedview>
 <metadata
   id="metadata5">
  <rdf:RDF>
   <cc:Work
     rdf:about="">
    <dc:format>image/svg+xml</dc:format>
    <dc:type
      rdf:resource="http://purl.org/dc/dcmitype/StillImage" />
   </cc:Work>
  </rdf:RDF>
 </metadata>
 <g
   inkscape:groupmode="layer"
   id="layer2"
   inkscape:label="pointer-shadow">
  <path
    id="path11-3"
    style="color:#000000;display:inline;overflow:visible;opacity:0.2;fill:#000000;fill-opacity:1;stroke:none;stroke-width:2;stroke-linecap:round;stroke-linejoin:round;stroke-opacity:1;-inkscape-stroke:none;paint-order:fill markers stroke"
    d="M 44,17 A 14,14 0 0 0 58,31 14,14 0 0 0 72,17 H 70 A 12,12 0 0 1 58,29 12,12 0 0 1 46,17 Z" />
 </g>
 <g
   inkscape:label="pointer"
   inkscape:groupmode="layer"
   id="layer1"
   style="display:inline">
  <path
    id="path11"
    style="color:#000000;overflow:visible;opacity:1;fill:#3698f4;fill-opacity:1;stroke:none;stroke-width:2;stroke-linecap:round;stroke-linejoin:round;stroke-opacity:1;-inkscape-stroke:none;paint-order:fill markers stroke"
    d="M 16 2 A 14 14 0 0 0 2 16 A 14 14 0 0 0 16 30 A 14 14 0 0 0 30 16 A 14 14 0 0 0 16 2 z M 16 4 A 12 12 0 0 1 28 16 A 12 12 0 0 1 16 28 A 12 12 0 0 1 4 16 A 12 12 0 0 1 16 4 z " />
  <circle
    style="color:#000000;overflow:visible;opacity:0.2;fill:#3698f4;fill-opacity:1;stroke:none;stroke-width:2;stroke-linecap:round;stroke-linejoin:round;stroke-opacity:1;-inkscape-stroke:none;paint-order:fill markers stroke"
    id="path12"
    cx="16"
    cy="16"
    r="13" />
 </g>
</svg>
