<?xml version="1.0" encoding="utf-8"?>
<svg xmlns="http://www.w3.org/2000/svg">
<defs>
	<symbol id="telegram-16" viewBox="0 0 16 16">
		<path style="fill:currentColor" d="M14.053 14.434c.253-.479 1.711-8.678 1.919-10.798.225-2.1-.95-1.709-2.031-1.354C11.288 3.155 2.9 6.896.604 8.064c-.566.229-.81.617-.399.952.354.285 1.65.675 2.695.874.891.263 1.583.011 2.222-.341 1.535-.887 6.109-3.91 6.355-4.067.246-.157.516.135.378.276-.138.141-3.377 2.974-4.441 4.254-.563.704-.547 1.08.032 1.524 1.299.993 4.768 3.256 5.284 3.393.658.174 1.044.03 1.322-.495Z"/>
	</symbol>
	<symbol id="github-16" viewBox="0 0 16 16">
		<path style="fill:currentColor" d="M8 0C3.58 0 0 3.58 0 8c0 3.54 2.29 6.53 5.47 7.59.4.07.55-.17.55-.38 0-.19-.01-.82-.01-1.49-2.01.37-2.53-.49-2.69-.94-.09-.23-.48-.94-.82-1.13-.28-.15-.68-.52-.01-.53.63-.01 1.08.58 1.23.82.72 1.21 1.87.87 2.33.66.07-.52.28-.87.51-1.07-1.78-.2-3.64-.89-3.64-3.95 0-.87.31-1.59.82-2.15-.08-.2-.36-1.02.08-2.12 0 0 .67-.21 2.2.82.64-.18 1.32-.27 2-.27.68 0 1.36.09 2 .27 1.53-1.04 2.2-.82 2.2-.82.44 1.1.16 1.92.08 2.12.51.56.82 1.27.82 2.15 0 3.07-1.87 3.75-3.65 3.95.29.25.54.73.54 1.48 0 1.07-.01 1.93-.01 2.2 0 .21.15.46.55.38A8.013 8.013 0 0016 8c0-4.42-3.58-8-8-8z"></path>
	</symbol>
</defs>
</svg>
